<svg width="32" height="28" viewBox="0 0 32 28" fill="none" xmlns="http://www.w3.org/2000/svg">
<path d="M28.8816 16.4784L31.4668 5.10338C31.6535 4.28209 31.0292 3.5 30.187 3.5H8.70669L8.20542 1.04945C8.08052 0.438648 7.54305 0 6.91955 0H1.3125C0.587617 0 0 0.587617 0 1.3125V2.1875C0 2.91238 0.587617 3.5 1.3125 3.5H5.13423L8.97591 22.2816C8.05684 22.8102 7.4375 23.8012 7.4375 24.9375C7.4375 26.6289 8.80863 28 10.5 28C12.1914 28 13.5625 26.6289 13.5625 24.9375C13.5625 24.0803 13.2099 23.3059 12.6424 22.75H24.1075C23.5401 23.3059 23.1875 24.0803 23.1875 24.9375C23.1875 26.6289 24.5586 28 26.25 28C27.9414 28 29.3125 26.6289 29.3125 24.9375C29.3125 23.725 28.6077 22.6772 27.5855 22.181L27.8872 20.8534C28.0739 20.0321 27.4496 19.25 26.6074 19.25H11.9283L11.5703 17.5H27.6017C28.2145 17.5 28.7458 17.076 28.8816 16.4784Z" fill="black"/>
</svg>
