<?xml version="1.0" encoding="utf-8"?>
<!-- Generator: Adobe Illustrator 25.2.0, SVG Export Plug-In . SVG Version: 6.00 Build 0)  -->
<svg version="1.1" xmlns="http://www.w3.org/2000/svg" xmlns:xlink="http://www.w3.org/1999/xlink" x="0px" y="0px"
	 viewBox="0 0 1274.34 525.03" style="enable-background:new 0 0 330 141;" xml:space="preserve">
<style type="text/css">
	.st0{fill:#EDEAE5;}
	.st1{fill:#CBD7CD;}
	.st2{fill:#FFFFFF;}
	.st3{fill:#E39A76;}
	.st4{fill:#EEDDCF;}
	.st5{fill:#272525;}
	.st6{fill:#008894;}
	.st7{fill:none;stroke:#000000;stroke-width:3.2846;stroke-linecap:round;stroke-linejoin:round;stroke-miterlimit:10;}
	.st8{fill:none;stroke:#000000;stroke-width:3.3963;stroke-linecap:round;stroke-linejoin:round;stroke-miterlimit:10;}
	.st9{fill:none;stroke:#000000;stroke-width:2.6849;stroke-linecap:round;stroke-linejoin:round;stroke-miterlimit:10;}
	.st10{fill:none;stroke:#000000;stroke-width:3.1277;stroke-linecap:round;stroke-linejoin:round;stroke-miterlimit:10;}
	.st11{fill:none;stroke:#000000;stroke-width:2.7368;stroke-linecap:round;stroke-linejoin:round;stroke-miterlimit:10;}
	.st12{fill:none;stroke:#000000;stroke-width:3.1499;stroke-linecap:round;stroke-linejoin:round;stroke-miterlimit:10;}
	.st13{fill:none;stroke:#000000;stroke-width:3.5082;stroke-linecap:round;stroke-linejoin:round;stroke-miterlimit:10;}
	.st14{fill:none;stroke:#000000;stroke-width:3.949;stroke-linecap:round;stroke-linejoin:round;stroke-miterlimit:10;}
	.st15{fill:none;stroke:#000000;stroke-width:3.3486;stroke-linecap:round;stroke-linejoin:round;stroke-miterlimit:10;}
	.st16{fill:none;stroke:#000000;stroke-width:3.2058;stroke-linecap:round;stroke-linejoin:round;stroke-miterlimit:10;}
	.st17{fill:none;stroke:#000000;stroke-width:2.8165;stroke-linecap:round;stroke-linejoin:round;stroke-miterlimit:10;}
</style>
<g id="BG">
	<g>
		<g>
			<g>
				<path d="M105.4,4.64l71.79,358.93h-29.06l-23.36-122.49H50.71L27.35,363.57H0L71.79,4.64H105.4z M55.83,216.01h63.81
					L88.88,54.78H86.6L55.83,216.01z"/>
				<path d="M324.13,213.73c0,88.88-17.09,143-60.96,152.69l19.94,38.74h-30.76l-18.8-38.74c-45.01-8.55-62.1-62.67-62.1-152.69
					v-59.25c0-98.56,20.51-154.4,76.35-154.4s76.35,55.83,76.35,154.4V213.73z M200.49,225.13c0,74.07,11.39,119.08,47.29,119.08
					s47.29-45.01,47.29-119.08v-82.04c0-74.07-11.39-119.08-47.29-119.08s-47.29,45.01-47.29,119.08V225.13z"/>
				<path d="M339.57,277.54V4.64h27.92v270.05c0,47.86,14.24,71.21,45.01,71.21c30.76,0,45.01-23.36,45.01-71.21V4.64h27.92v272.9
					c0,49-18.8,90.59-72.93,90.59C358.37,368.13,339.57,326.54,339.57,277.54z"/>
				<path d="M594.02,4.64l71.79,358.93h-29.06l-23.36-122.49h-74.07l-23.36,122.49h-27.35L560.4,4.64H594.02z M544.45,216.01h63.81
					L577.5,54.78h-2.28L544.45,216.01z"/>
			</g>
		</g>
		<g>
			<path d="M883.47,216.4c0,105.97-21.65,146.42-86.6,146.42h-58.11V3.88h58.11c64.95,0,86.6,40.45,86.6,146.42V216.4z
				 M855.55,154.86c0-99.14-14.81-127.62-60.39-127.62h-27.92v312.22h27.92c45.58,0,60.39-28.49,60.39-127.62V154.86z"/>
			<path d="M1112.03,362.82V27.81h-64.95V3.88h160.09v23.93h-66.65v335.01H1112.03z"/>
			<path d="M1053.62,213.65c0,98.56-20.51,154.4-76.35,154.4c-55.83,0-76.35-55.83-76.35-154.4V154.4
				C900.93,55.83,921.44,0,977.28,0c55.83,0,76.35,55.83,76.35,154.4V213.65z M929.99,225.05c0,74.07,11.39,119.08,47.29,119.08
				s47.29-45.01,47.29-119.08v-82.04c0-74.07-11.39-119.08-47.29-119.08s-47.29,45.01-47.29,119.08V225.05z"/>
		</g>
		<g>
			<path class="st6" d="M531.31,471.06c0,37.88-7.74,52.33-30.95,52.33h-20.77V395.11h20.77c23.22,0,30.95,14.46,30.95,52.33V471.06
				z M521.33,449.07c0-35.43-5.3-45.61-21.58-45.61h-9.98v111.59h9.98c16.29,0,21.58-10.18,21.58-45.61V449.07z"/>
			<path class="st6" d="M587.92,523.4h-44.39V395.11h42.76v8.55h-32.99v48.67h25.66v8.76h-25.66v53.76h34.62V523.4z"/>
			<path class="st6" d="M602.19,476.36v16.29c0,15.68,5.5,24.44,16.29,24.44c10.18,0,15.07-8.55,15.07-21.79
				c0-15.07-5.7-19.96-13.64-27.49l-9.98-9.57c-8.14-7.94-16.7-15.88-16.7-35.43c0-16.49,8.15-29.32,24.23-29.32
				c17.92,0,25.05,13.03,25.05,32.58v14.66h-9.57v-15.07c0-15.07-4.48-24.23-15.27-24.23c-10.18,0-14.46,8.14-14.46,21.38
				c0,15.48,5.09,19.96,13.03,27.29l9.77,9.16c8.35,7.74,17.51,16.9,17.51,36.04c0,16.9-8.76,29.73-24.84,29.73
				c-17.92,0-26.06-13.24-26.06-32.78v-15.88H602.19z"/>
			<path class="st6" d="M663.69,395.11V523.4h-10.18V395.11H663.69z"/>
			<path class="st6" d="M721.93,523.4l-1.42-15.27c-1.63,11.4-9.77,16.9-18.12,16.9c-19.14,0-26.47-19.96-26.47-55.18v-21.18
				c0-35.22,7.33-55.18,27.28-55.18c19.34,0,25.04,18.73,25.04,51.92v1.22h-9.98v-2.04c0-26.47-2.24-42.56-15.07-42.56
				s-16.9,16.08-16.9,42.56v29.33c0,26.47,4.07,42.56,16.9,42.56c12.62,0,16.49-15.68,16.49-42.56v-4.28h-14.25v-8.76h23.42v62.51
				H721.93z"/>
			<path class="st6" d="M788.32,395.11h9.37V523.4h-7.74l-37.88-102.83h-0.81V523.4h-9.37V395.11h9.77l35.84,95.71h0.81V395.11z"/>
		</g>
		<circle class="st6" cx="1228.44" cy="317.73" r="45.9"/>
	</g>
</g>
<g id="Object">
</g>
</svg>
